<?xml version="1.0" encoding="utf-8"?>
<!-- Generator: Adobe Illustrator 18.0.0, SVG Export Plug-In . SVG Version: 6.00 Build 0)  -->
<!DOCTYPE svg PUBLIC "-//W3C//DTD SVG 1.1//EN" "http://www.w3.org/Graphics/SVG/1.1/DTD/svg11.dtd">
<svg version="1.1" id="Capa_1" xmlns="http://www.w3.org/2000/svg" xmlns:xlink="http://www.w3.org/1999/xlink" x="0px" y="0px"
	 viewBox="14.4 239.9 521.9 291.2" enable-background="new 14.4 239.9 521.9 291.2" xml:space="preserve">
<g>
	<path fill="#C6C6C5" d="M-372,878.8c-138.3,0-250.8-31.7-250.8-70.6c0-10,7.6-20.9,20.3-29.4c3.4-2.2,8.7-2.2,12,0
		c3.4,2.2,3.4,5.8,0,8c-9.6,6.4-15.2,14.3-15.2,21.3c0,28,96,59.2,233.7,59.2c138,0,234.2-31.2,234.2-59.2c0-7.7-7.1-15.6-20-22.5
		c-3.7-1.9-4.4-5.5-1.4-8c2.9-2.4,8.2-2.9,11.9-0.9c17.1,8.9,26.5,20.1,26.5,31.4C-120.8,847.2-233.5,878.8-372,878.8z"/>
</g>
<g>
	<g>
		<g>
			<g>
				<path id="_x31__4_" fill="#FFFFFF" d="M163,444.7v-25.8h15.8c5,0,5.8-2.8,5.8-4c0-2.8-1.8-5-5.8-5H163v-11.7
					c0-4-1.8-5.4-4.6-5.4s-4.6,1.4-4.6,5.4v12.2c-2.2,0-3.6,1.4-3.6,3.6c0,2.2,1.4,4,3.6,4.6v26.5c0,18.3,10.7,21.9,28,21.9
					c5,0,5.4-2.8,5.4-4.6c0-3.6-2.8-4.6-5.4-4.6C168.4,458.1,163,457.3,163,444.7z"/>
				<path id="_x32__2_" fill="#FFFFFF" d="M229.6,429.4c-20.2,0-31.6,4-31.6,21.9c0,10,6.4,15.8,14.4,15.8h11.7
					c9,0,17.2-1.8,22.6-6.4v1.8c0,4.6,2.8,5.4,4,5.4c1.8,0,4.6-0.4,4.6-5v-36.7c0-11.2-2.8-16.1-13.6-16.1h-19.4
					c-14.4,0-24.3,2.8-24.3,13.9c0,4.6,2.8,5.4,4.6,5.4c3.6,0,4.6-2.2,4.6-5.4c0-3.6,3.2-5,16.1-5H241c4.6,0,5.8,1,5.8,5.4v5
					L229.6,429.4L229.6,429.4z M246.8,438.4c0,8.2-2.2,19.7-22.6,19.7h-11.7c-2.2,0-5.4-2.8-5.4-6.4c0-12.2,4.6-13.6,22.6-13.6h17.2
					L246.8,438.4L246.8,438.4z"/>
				<path id="_x33__2_" fill="#FFFFFF" d="M320.5,467.1c12.2,0,13.9-7.6,13.9-14.8c0-4-1.8-5.8-4.6-5.8c-1.8,0-4.6,1-4.6,5.4
					c0,5-1.4,6.4-5.8,6.4h-16.6c-17.5,0-21.9-1-21.9-13.6v-12.2c0-12.2,4.6-13.6,21.9-13.6h16.6c4.6,0,5.8,1.4,5.8,6.4
					c0,4.6,2.8,5.4,4.6,5.4s4.6-0.4,4.6-5.4c0-7.6-1.8-15.4-13.9-15.4h-17.5c-20.7,0-31.1,3.6-31.1,21.9v12.9
					c0,18.3,10.4,21.9,31.1,21.9h17.5V467.1z"/>
				<path id="_x34__2_" fill="#FFFFFF" d="M401.1,463.9c0-1.4-0.4-3.2-1.4-3.6l-31.1-25.8l21.6-17.5c1.8-1.4,2.2-2.8,2.2-3.6
					c0-2.2-2.2-4-4.6-4c-1.8,0-3.2,1-4,1.8l-24.3,21.2v-39.5c0-4.6-2.8-5.4-4.6-5.4c-1.8,0-4.6,1-4.6,5.4v70.3c0,4,2.8,5,4.6,5
					c2.2,0,4.6-1,4.6-5v-21.9l2.2-2.2l31.6,27.5c0.4,1,1.8,1.8,3.6,1.8C399.7,468.1,401.1,465.7,401.1,463.9z"/>
			</g>
			<g enable-background="new    ">
				<path fill="#FFFFFF" d="M254.1,359.3c0,4.5-2.2,6.6-6.6,6.6h-18.8c-4.5,0-6.6-2.2-6.6-6.6v-44c0-4.5,2.2-6.6,6.6-6.6h18.8
					c4.5,0,6.6,2.2,6.6,6.6v20.6l-2.6,2.8h-21.8v20.8h16.8V349h7.5v10.3H254.1z M246.4,332.4v-17.2h-16.8v17.2H246.4z"/>
				<path fill="#FFFFFF" d="M299.9,353.6c0,3.5-1.2,6.5-3.5,8.8c-2.3,2.3-5.2,3.5-8.8,3.5h-20.8v-92.1h7.8v36.4
					c3.1-0.5,6.1-0.8,9.2-1.2c3.8-0.5,7.1-0.8,9.2-0.8c4.3,0,6.5,2.2,6.5,6.5v38.9H299.9z M292.1,352.4v-36.7l-17.2,0.5V359h10.8
					C289.9,359,292.1,356.9,292.1,352.4z"/>
				<path fill="#FFFFFF" d="M344.7,359.3c0,4.5-2.2,6.6-6.6,6.6h-18.8c-4.5,0-6.6-2.2-6.6-6.6v-44c0-4.5,2.2-6.6,6.6-6.6h18.8
					c4.5,0,6.6,2.2,6.6,6.6v20.6l-2.6,2.8h-21.8v20.8H337V349h7.5v10.3H344.7z M337,332.4v-17.2h-16.8v17.2H337z"/>
				<path fill="#FFFFFF" d="M365.7,365.9H358v-92.1h7.7V365.9z"/>
			</g>
		</g>
		<path fill="#FFFFFF" d="M150.2,245.1l-67.1,38.6v75l59.8,35.9l0.1-33.1l-0.4-0.1l0.6-23.3l2.5,0.3c1.3,3.8,3.5,7.3,6.6,10.4
			c2.8,3.1,6.6,5.8,10.4,7.6c4.1,1.8,8.3,2.5,12.4,2.5v-17.4c-2.5,0-4.8-0.7-6.9-2c-1.8-1.3-3.5-3.1-4.5-5.5
			c3.8-2.5,6.6-5.3,8.6-8.6c2-3.8,3.1-8,3.1-12.4c0-4.8-1-9-3.5-12.8c-2.5-3.5-5.5-6.3-10.1-8.3c-4.5-2-10.1-3.1-16.2-3.1
			c-3.8,0-7.6,0.3-11.4,1s-6.9,1.3-9,2.8v70.4l-24.1-11.2v-58.9l49.1-28.4l49.1,28.4v56.7l-39.8,22.9v22.2l57.7-33.1v-77.4
			L150.2,245.1z M145.5,304.9c1.3-0.3,2.5-0.3,3.5-0.3c1.7,0,3.1,0.3,4.5,1c1,1,2.5,2,3.1,3.5c0.7,1.3,1,2.8,1,4.1
			c0,1.8-0.3,3.1-1.8,4.5c-1,1.3-2.5,2.5-4.1,3.1c-1.8,0.7-3.5,1-5.3,1c-1.3,0-2.5,0-3.5-0.7l-0.3-15.2
			C143.4,305.5,144.5,305.2,145.5,304.9z"/>
		<path fill="#FFFFFF" d="M83.1,370l-59.9,34.5v69.1L83.1,508l59.9-34.5v-69.1L83.1,370z M66.8,431.9h30.5
			c13.6,0,17.2,8.9,17.2,17.5c0,9.7-4.6,16.1-20.7,16.1H65.4c-11.8,0-13.6-7.6-13.9-15c0-3.9,1.8-5.8,4.6-5.8c2.8,0,4.6,1.8,4.6,5.4
			c0,5,0.8,6.4,5.4,6.4h33.6c3.6,0,5.8-1.7,5.8-7.2c0-5-2.2-8.6-5.8-8.6H69.2c-12.6,0-17.2-7.2-17.2-16.6c0-9.4,4.1-15.8,20.7-15.8
			h28c12.1,0,13.9,7.8,13.9,15.4c0,5-2.8,5.4-4.6,5.4c-1.8,0-4.6-0.8-4.6-5.4c0-5-1.2-6.4-5.8-6.4H66.8c-3.9,0-5.8,1.8-5.8,6.8
			C61,429.7,63.6,431.9,66.8,431.9z"/>
	</g>
	<g>
		<path fill="#BE5F24" d="M467.4,364.9l-60.1,34.6v69.3l60.1,34.6l60.1-34.6v-69.3L467.4,364.9z"/>
		<g>
			<g>
				<path fill="#FFFFFF" d="M448.2,469.5H491c3.6,0,4.3-2.4,4.3-3.6c0-3-1.7-4.3-4.3-4.3h-42.8c-3.6,0-4.3,2.4-4.3,3.6
					C444,467.2,444.6,469.5,448.2,469.5z M436.8,465.2c0-2.4-1.7-6-4.7-6c-3.6,0-5.3,3.6-5.3,6c0,3,1.7,6.6,5.3,6.6
					C435,471.9,436.8,467.8,436.8,465.2z"/>
				<path id="_x31__13_" fill="#FFFFFF" d="M492.7,418.9c0-17-2.9-25.9-17.8-25.9h-10.8c-14.8,0-17.8,9-17.8,25.9v3
					c0,17.3,2.9,25.9,17.8,25.9H475c14.8,0,17.8-8.4,17.8-25.9L492.7,418.9L492.7,418.9z M485.5,421.9c0,14.4-1.3,18.6-10.8,18.6
					h-10.1c-10.1,0-11.2-4.3-11.2-18.6v-3c0-14.4,0.7-18.6,11.2-18.6h10.1c10.1,0,10.8,4.3,10.8,18.6V421.9z"/>
			</g>
		</g>
	</g>
</g>
</svg>
